<?xml version="1.0" encoding="UTF-8" standalone="no"?>
<!-- Created with Inkscape (http://www.inkscape.org/) -->

<svg
   width="134.28397mm"
   height="40.49295mm"
   viewBox="0 0 134.28397 40.49295"
   version="1.1"
   id="svg5"
   xml:space="preserve"
   inkscape:version="1.2.2 (732a01da63, 2022-12-09)"
   sodipodi:docname="s22hull.svg"
   inkscape:export-filename="s22hull.svg"
   inkscape:export-xdpi="96"
   inkscape:export-ydpi="96"
   xmlns:inkscape="http://www.inkscape.org/namespaces/inkscape"
   xmlns:sodipodi="http://sodipodi.sourceforge.net/DTD/sodipodi-0.dtd"
   xmlns="http://www.w3.org/2000/svg"
   xmlns:svg="http://www.w3.org/2000/svg"><sodipodi:namedview
     id="namedview7"
     pagecolor="#ffffff"
     bordercolor="#000000"
     borderopacity="0.25"
     inkscape:showpageshadow="2"
     inkscape:pageopacity="0.0"
     inkscape:pagecheckerboard="0"
     inkscape:deskcolor="#d1d1d1"
     inkscape:document-units="mm"
     showgrid="false"
     inkscape:zoom="2"
     inkscape:cx="312"
     inkscape:cy="762.25"
     inkscape:window-width="2400"
     inkscape:window-height="1271"
     inkscape:window-x="5591"
     inkscape:window-y="434"
     inkscape:window-maximized="1"
     inkscape:current-layer="layer1" /><defs
     id="defs2" /><g
     inkscape:label="Layer 1"
     inkscape:groupmode="layer"
     id="layer1"
     inkscape:export-filename=".\ss22hull.svg"
     inkscape:export-xdpi="96"
     inkscape:export-ydpi="96"
     transform="translate(-32.513589,-202.6654)"><path
       style="fill:#42bec3;fill-opacity:1;stroke:#000000;stroke-width:0.264583;stroke-opacity:1"
       d="m 157.69166,216.95833 8.86355,-14.15521 -124.486461,2.77813 -3.241145,11.90625 z"
       id="topsides"
       sodipodi:nodetypes="ccccc" /><path
       style="fill:#000000;fill-opacity:1;stroke:#000000;stroke-width:0.264583;stroke-opacity:1"
       d="m 38.695312,217.4875 -6.019271,20.37291 c 0,0 4.497917,1.5875 7.9375,-4.49791 3.439583,-6.08542 6.35,-10.58334 6.35,-10.58334 0,0 33.115756,3.30431 44.45,2.11667 -0.02453,-0.13122 -7.672917,18.12396 -7.672917,18.12396 l 8.598958,-0.26458 c 0,0 1.190625,0.52916 2.910417,-1.45521 1.719791,-1.98438 16.007291,-16.53646 16.007291,-16.53646 0,0 27.45385,-0.51269 37.30625,-2.38125 7.67291,-1.45521 8.99582,-5.42396 8.99582,-5.42396 z"
       id="bottom" /></g></svg>
