<svg xmlns="http://www.w3.org/2000/svg" xml:space="preserve" width="507.53" height="153.044" viewBox="0 0 134.284 40.493">
  <path d="m157.692 216.958 8.863-14.155-124.486 2.778-3.241 11.906z" style="fill:#42bec3;fill-opacity:1;stroke:#000;stroke-width:.264583;stroke-opacity:1" transform="translate(-32.514 -202.665)"/>
  <path d="m38.695 217.488-6.019 20.372s4.498 1.588 7.938-4.498c3.44-6.085 6.35-10.583 6.35-10.583s33.115 3.304 44.45 2.117c-.025-.131-7.673 18.124-7.673 18.124l8.599-.265s1.19.53 2.91-1.455c1.72-1.984 16.007-16.536 16.007-16.536s27.454-.513 37.307-2.382c7.672-1.455 8.995-5.424 8.995-5.424z" style="fill:#000;fill-opacity:1;stroke:#000;stroke-width:.264583;stroke-opacity:1" transform="translate(-32.514 -202.665)"/>
</svg>